<svg xmlns="http://www.w3.org/2000/svg" viewBox="0 0 768 768" role="img" aria-label="VRD logo">
  <rect width="768" height="768" fill="#000000" />
  <g fill="#f2f2f2" transform="translate(70 70)">
    <path d="M38 255L120 196L182 376L245 196H322L221 495L172 523L86 500L38 385V255Z" />
    <path d="M300 145L413 68L551 160V290L470 360L555 520H474L410 402H378V557L300 505V145ZM378 170V333H443L477 302V190L428 160L378 170Z" />
    <path d="M560 190L650 247V446L558 510H497V459H536L575 432V266L536 239H497V190H560Z" />
  </g>
</svg>
